<?xml version="1.0" encoding="utf-8"?>
<!-- Generator: Adobe Illustrator 24.2.0, SVG Export Plug-In . SVG Version: 6.00 Build 0)  -->
<svg version="1.1" id="Capa_1" xmlns="http://www.w3.org/2000/svg" xmlns:xlink="http://www.w3.org/1999/xlink" x="0px" y="0px"
	 viewBox="0 0 600 600" style="enable-background:new 0 0 600 600;" xml:space="preserve">
<style type="text/css">
	.st0{fill:#5D5360;}
	.st1{fill:#B6B1B7;}
	.st2{fill:#E5646E;}
	.st3{fill:#857E87;}
	.st4{fill:#9B959D;}
	.st5{fill:#DB4655;}
	.st6{fill:#DAD8DB;}
	.st7{fill:#4B3F4E;}
</style>
<g>
	<path class="st0" d="M415.6,106v31l41.3,20.7V106H415.6z"/>
	<path class="st1" d="M357.8,137h99.1v46.6h-99.1V137z"/>
	<path class="st0" d="M473.4,245.8c-45.6,0-82.6,69.5-82.6,155.1s37,155.1,82.6,155.1S556,486.6,556,400.9S519,245.8,473.4,245.8z
		 M473.4,493.9c-27.4,0-49.5-41.7-49.5-93s22.2-93,49.5-93s49.5,41.7,49.5,93C523,452.2,500.8,493.9,473.4,493.9z"/>
	<path class="st2" d="M473.4,509.3c-31.9,0-57.8-48.6-57.8-108.6s25.9-108.6,57.8-108.6s57.8,48.6,57.8,108.6
		S505.3,509.3,473.4,509.3z M473.4,323.2c-22.8,0-41.3,34.7-41.3,77.6s18.5,77.6,41.3,77.6s41.3-34.7,41.3-77.6
		C514.7,358.1,496.2,323.2,473.4,323.2z"/>
	<ellipse class="st3" cx="473.4" cy="400.7" rx="24.8" ry="46.6"/>
	<path class="st1" d="M473.4,416.3c-3.4,0-6.5-3.9-7.8-10.1L430,221.7c-1.6-8.1,0.7-16.9,4.9-19.9c4.3-3,9,1.3,10.6,9.2l35.7,184.3
		c1.6,8.1-0.7,16.9-4.9,19.9C475.3,415.9,474.4,416.3,473.4,416.3z"/>
	<path class="st4" d="M215.6,383.1l45.2-113.8l48.4,92.8l-41.9,43.8L215.6,383.1z"/>
	<path class="st5" d="M275.2,152.6h-62.4c-7.5,0-14.6-6.4-19.3-17.5l-15.7-36.8C171.5,83.7,162,75,152,75h-31.3
		c-6.1,0-8.7,14.5-3.9,21.4l221.4,317.8v-95L275.2,152.6z"/>
	<path class="st0" d="M275.2,168.2h-62.4c-10.1,0-19.5-8.5-25.8-23.3c-2.8-6.8-2.3-16.5,1.3-21.8c3.6-5.4,8.8-4.3,11.6,2.4
		c3.1,7.3,7.8,11.6,12.9,11.6h62.4c4.6,0,8.3,6.9,8.3,15.6C283.5,161.4,279.8,168.2,275.2,168.2L275.2,168.2z"/>
	<path class="st0" d="M126.6,245.8C81,245.8,44,315.1,44,400.7s37,155.1,82.6,155.1s82.6-69.5,82.6-155.1S172.2,245.8,126.6,245.8z
		 M126.6,493.9c-27.4,0-49.5-41.7-49.5-93s22.2-93,49.5-93s49.5,41.7,49.5,93S153.9,493.9,126.6,493.9z"/>
	<path class="st2" d="M126.6,509.3c-31.9,0-57.8-48.6-57.8-108.6s25.9-108.6,57.8-108.6s57.8,48.6,57.8,108.6
		S158.5,509.3,126.6,509.3z M126.6,323.2c-22.8,0-41.3,34.7-41.3,77.6s18.5,77.6,41.3,77.6s41.3-34.7,41.3-77.6
		S149.3,323.2,126.6,323.2z"/>
	<ellipse class="st3" cx="126.6" cy="400.7" rx="24.8" ry="46.6"/>
	<path class="st6" d="M192.9,326.7c-4-4.1-9-1.5-11.2,6l-8,27c-2.2,7.5-0.8,16.9,3.2,21l80.5,85.8l10-61L192.9,326.7z"/>
	<path class="st2" d="M503.1,180.4L444,44.1c-5.8,0-9.8,10.9-7.7,21l12.2,61.2c4,20.3-3.9,41.9-15.5,41.9h-50.5v-15.6
		c0-34.2-14.8-62-33-62h-34.6c-15,0-29.6,9.6-41.3,27.2L262.9,134c-7,10.5-8.2,29.3-2.9,42.8l14.3,35.9l22.4,13l-2.2,37.9l24.5,61.8
		l-20.3,9.8l-50.9,64l7.6,63.9h123l14.6-15.4c0.5-2.6,0.9-5.4,1.1-8.5l7-85.3c3.9-47,21.7-85.8,45.9-99.7l47-27.6
		C504.4,220.6,508.9,197.7,503.1,180.4L503.1,180.4z"/>
	<ellipse class="st1" cx="300" cy="354.3" rx="24.8" ry="46.6"/>
	<path class="st6" d="M461.8,58.3c-3-9-8.3-14.3-13.9-14.3H444l24.4,85.8c5.2,18.4,13.6,33.1,23.8,41.5l10.8,9L461.8,58.3z"/>
	<ellipse class="st7" cx="415.6" cy="121.6" rx="8.3" ry="15.6"/>
	<path class="st6" d="M299.6,179.7l-25.4,32.9l20.2,50.7l22.3-30.2c1.4-1.9,3-2.8,4.7-2.8H366c9.1,0,16.5-13.9,16.5-31v-31h-63.7
		C312,168.2,305.2,172.1,299.6,179.7L299.6,179.7z"/>
	<path class="st5" d="M276,447.3c-9.4,0-18-10-22.2-25.7l-6-22.7l-1.7,2.3c-6.9,8.6-9.3,25.7-5.6,39.6l3.2,11.8
		c4.2,15.8,12.8,25.7,22.2,25.7h103.8c10.7,0,19.9-12.8,23.4-31L276,447.3L276,447.3z"/>
	<ellipse class="st6" cx="300" cy="354.3" rx="8.3" ry="15.6"/>
</g>
</svg>
