<?xml version="1.0" encoding="utf-8"?>
<!-- Generator: Adobe Illustrator 24.2.0, SVG Export Plug-In . SVG Version: 6.00 Build 0)  -->
<svg version="1.1" id="Capa_1" xmlns="http://www.w3.org/2000/svg" xmlns:xlink="http://www.w3.org/1999/xlink" x="0px" y="0px"
	 viewBox="0 0 512 512" style="enable-background:new 0 0 512 512;" xml:space="preserve">
<style type="text/css">
	.st0{fill:#FFDF8E;}
	.st1{fill:#FFB64C;}
</style>
<g>
	<path class="st0" d="M482.3,181.4l-176.5,23.7l86.3-186C399.7,3,364.5-7.4,348.8,6.4l-77.6,67.8L4.5,307.4
		c-12.9,11.3,3.9,26.5,25.8,23.2l157.3-23.8l-86,186.1c-7.4,16,27.1,26.3,43,13l126.7-105.1L507.1,205
		C520.5,193.8,504.3,178.4,482.3,181.4L482.3,181.4z"/>
	<path class="st1" d="M507.1,205L271.2,400.8V74.2l77.6-67.8c15.7-13.8,50.9-3.4,43.4,12.7l-86.3,186l176.5-23.7
		C504.3,178.4,520.5,193.8,507.1,205L507.1,205z"/>
	<path class="st1" d="M466.6,422l-58.5-0.6l31.1-37.6c6.1-7.4,1.3-16.4-10.7-20.2c-12-3.8-26.7-0.8-32.8,6.6l-48.7,59
		c-9.9,12,3.1,19.8,21.8,21.8l58.4,0.6l-31.4,38.7c-6,7.4-1.1,16.4,10.9,20.1c12.1,3.7,26.7,0.7,32.7-6.7l48.7-60
		C496,433.9,484.4,422.2,466.6,422L466.6,422z"/>
	<path class="st0" d="M87.1,1.6c-12-3.7-26.7-0.7-32.7,6.7l-48.7,60C-2.3,78.1,9,90,27.6,90h57.9l-31.1,38.3
		c-6,7.4-1.1,16.4,10.9,20.1c12.1,3.7,26.7,0.7,32.7-6.7l48.7-60c8.1-10-3.8-21.7-21.8-21.7H66.9L98,21.7
		C104,14.3,99.2,5.3,87.1,1.6z"/>
</g>
</svg>
