<svg height="512pt" viewBox="0 0 512 512" width="512pt" xmlns="http://www.w3.org/2000/svg"><path d="m256 437-50 37.5 50 37.5h181c41.355469 0 75-33.644531 75-75zm0 0" fill="#ff4547"/><path d="m0 437c0 41.355469 33.644531 75 75 75h181v-75zm0 0" fill="#ff7666"/><path d="m256 180-150 128.5 150 128.5c107.523438 0 195-87.476562 195-195v-62zm0 0" fill="#66fcf1"/><path d="m61 180v62c0 107.523438 87.476562 195 195 195v-257zm0 0" fill="#a1fef7"/><path d="m256 210-110 98.5 110 98.5c90.980469 0 165-74.019531 165-165v-32zm0 0" fill="#dbfffc"/><path d="m91 210v32c0 90.980469 74.019531 165 165 165v-197zm0 0" fill="#fff"/><path d="m256 240-50 68.5 50 68.5c74.4375 0 135-60.5625 135-135v-2zm0 0" fill="#ff4547"/><path d="m121 240v2c0 74.4375 60.5625 135 135 135v-137zm0 0" fill="#ff7666"/><path d="m106 0c0 82.84375 67.15625 150 150 150 0-82.84375-67.15625-150-150-150zm0 0" fill="#4ba6a7"/><path d="m256 150c82.84375 0 150-67.15625 150-150-82.84375 0-150 67.15625-150 150zm0 0" fill="#3e7b81"/></svg>