<?xml version="1.0" encoding="utf-8"?>
<!-- Generator: Adobe Illustrator 24.2.0, SVG Export Plug-In . SVG Version: 6.00 Build 0)  -->
<svg version="1.1" id="Layer_1" xmlns="http://www.w3.org/2000/svg" xmlns:xlink="http://www.w3.org/1999/xlink" x="0px" y="0px"
	 viewBox="0 0 512 512" style="enable-background:new 0 0 512 512;" xml:space="preserve">
<style type="text/css">
	.st0{fill:#02A9F4;}
	.st1{fill:#0377BC;}
	.st2{fill:#00BCD4;}
	.st3{fill:#00838F;}
	.st4{fill:#CFD8DC;}
	.st5{fill:#F5F5F5;}
</style>
<g id="Page-1">
	<g id="_x30_04---Fridge">
		<path id="Shape" class="st0" d="M458.7,170.7v247.5c0,23.6-23.9,42.7-53.3,42.7H64c-29.5,0-53.3-19.1-53.3-42.7V170.7H458.7z"/>
		<path id="Shape_1_" class="st1" d="M426.7,170.7v247.5c0,11.3-5.6,22.2-15.6,30.2c-10,8-23.6,12.5-37.7,12.5h32
			c29.5,0,53.3-19.1,53.3-42.7V170.7H426.7z"/>
		<path id="Shape_2_" class="st2" d="M458.7,51.2v119.5h-448V51.2C10.7,27.6,34.5,8.5,64,8.5h341.3C419.5,8.5,433,13,443,21
			S458.7,39.9,458.7,51.2z"/>
		<path id="Shape_3_" class="st3" d="M405.3,8.5h-32C387.5,8.5,401,13,411,21s15.6,18.9,15.6,30.2v119.5h32V51.2
			C458.7,39.9,453,29,443,21S419.5,8.5,405.3,8.5z"/>
		<path id="Shape_4_" class="st4" d="M96,460.8v21.3c0,11.8-11.9,21.3-26.7,21.3s-26.7-9.6-26.7-21.3v-21.3H96z"/>
		<path id="Shape_5_" class="st4" d="M426.7,460.8v21.3c0,11.8-11.9,21.3-26.7,21.3s-26.7-9.6-26.7-21.3v-21.3H426.7z"/>
		<path id="Shape_6_" class="st4" d="M458.7,273.1H480c11.8,0,21.3,7.6,21.3,17.1v51.2c0,9.4-9.6,17.1-21.3,17.1h-21.3V273.1z"/>
		<path id="Shape_7_" class="st4" d="M458.7,51.2H480c11.8,0,21.3,7.6,21.3,17.1v51.2c0,9.4-9.6,17.1-21.3,17.1h-21.3V51.2z"/>
		<path id="Shape_8_" class="st5" d="M327.9,326l-34.4,7.5l-37.7-17.7l37.7-17.7l34.4,7.5c3.7,0.9,7.7,0.1,10.5-2.1
			c2.8-2.2,3.9-5.4,2.8-8.3c-1-3-4-5.3-7.7-6l-28.5-6.2l7.7-23.3c1-2.9-0.1-6.1-2.8-8.2c-2.7-2.1-6.6-3-10.3-2.2
			c-3.7,0.8-6.5,3.1-7.5,6.1l-9.2,28.1l-37.4,17.5v-35.4l25.3-20.6c2.9-2.1,4-5.4,3-8.4c-1-3-4-5.4-7.8-6.1
			c-3.8-0.7-7.8,0.2-10.4,2.6l-20.7,16.8L213.9,233c-2.6-2.3-6.6-3.3-10.4-2.6c-3.8,0.7-6.8,3.1-7.8,6.1c-1,3,0.2,6.2,3,8.4
			l25.3,20.6v35.4l-37.4-17.5l-9.2-28.1c-1-2.9-3.8-5.3-7.5-6.1s-7.6,0-10.3,2.2c-2.7,2.1-3.8,5.3-2.8,8.2l7.7,23.3l-28.5,6.2
			c-3.8,0.7-6.7,3.1-7.7,6c-1,3,0.1,6.2,2.8,8.3c2.8,2.2,6.8,3,10.5,2.1l34.4-7.5l37.7,17.7l-37.7,17.7l-34.4-7.5
			c-3.7-0.9-7.7-0.1-10.5,2.1c-2.8,2.2-3.9,5.4-2.8,8.3c1,3,4,5.3,7.7,6l28.5,6.2l-7.7,23.3c-0.7,2.2-0.3,4.5,1.1,6.5
			c1.4,2,3.8,3.4,6.5,4c0.9,0.2,1.8,0.3,2.7,0.3c4.8,0,9.1-2.6,10.3-6.4l9.2-28.1l37.4-17.6V366l-25.3,20.6c-2.9,2.1-4,5.4-3,8.4
			c1,3,4,5.4,7.8,6.1c3.8,0.7,7.8-0.2,10.4-2.6l20.7-16.8l20.7,16.8c2.6,2.3,6.6,3.3,10.4,2.6s6.8-3.1,7.8-6.1c1-3-0.2-6.2-3-8.4
			L245.3,366v-35.4l37.4,17.5l9.2,28.1c1.2,3.7,5.5,6.4,10.3,6.4c0.9,0,1.8-0.1,2.7-0.3c2.7-0.6,5.1-2,6.5-4s1.8-4.3,1.1-6.5
			l-7.7-23.3l28.5-6.2c3.8-0.7,6.7-3.1,7.7-6c1-3-0.1-6.2-2.8-8.3C335.6,325.8,331.6,325,327.9,326L327.9,326z"/>
		<g>
			<path id="Shape_9_" d="M32,462.4v19.7c0,16.5,16.7,29.9,37.3,29.9s37.3-13.4,37.3-29.9v-12.8h256v12.8
				c0,16.5,16.7,29.9,37.3,29.9s37.3-13.4,37.3-29.9v-19.7c19.8-9.1,32-26,32-44.3v-51.2H480c17.7,0,32-11.5,32-25.6v-51.2
				c0-14.1-14.3-25.6-32-25.6h-10.7V145.1H480c17.7,0,32-11.5,32-25.6V68.3c0-14.1-14.3-25.6-32-25.6h-11.6
				C463.1,18.1,436.5,0,405.3,0H64C28.7,0,0,22.9,0,51.2v366.9C0,436.4,12.2,453.3,32,462.4z M85.3,482.1c0,7.1-7.2,12.8-16,12.8
				s-16-5.7-16-12.8v-12.8h32V482.1z M416,469.3v12.8c0,7.1-7.2,12.8-16,12.8s-16-5.7-16-12.8v-12.8H416z M448,418.1
				c0,18.9-19.1,34.1-42.7,34.1H64c-23.6,0-42.7-15.3-42.7-34.1V179.2H448V418.1z M480,281.6c5.9,0,10.7,3.8,10.7,8.5v51.2
				c0,4.7-4.8,8.5-10.7,8.5h-10.7v-68.3H480z M490.7,68.3v51.2c0,4.7-4.8,8.5-10.7,8.5h-10.7V59.7H480
				C485.9,59.7,490.7,63.6,490.7,68.3z M64,17.1h341.3c23.6,0,42.7,15.3,42.7,34.1v110.9H21.3V51.2C21.3,32.3,40.4,17.1,64,17.1z"/>
			<path id="Shape_10_" d="M416,375.5c-5.9,0-10.7,3.8-10.7,8.5v34.1h-42.7c-5.9,0-10.7,3.8-10.7,8.5c0,4.7,4.8,8.5,10.7,8.5H416
				c5.9,0,10.7-3.8,10.7-8.5V384C426.7,379.3,421.9,375.5,416,375.5z"/>
			<path id="Shape_11_" d="M362.7,51.2h42.7v34.1c0,4.7,4.8,8.5,10.7,8.5s10.7-3.8,10.7-8.5V42.7c0-4.7-4.8-8.5-10.7-8.5h-53.3
				c-5.9,0-10.7,3.8-10.7,8.5S356.8,51.2,362.7,51.2z"/>
			<path id="Shape_12_" d="M74.7,213.3c5.9,0,10.7-3.8,10.7-8.5c0-4.7-4.8-8.5-10.7-8.5c-17.7,0-32,11.5-32,25.6v59.7
				c0,14.1,14.3,25.6,32,25.6c5.9,0,10.7-3.8,10.7-8.5c0-4.7-4.8-8.5-10.7-8.5S64,286.3,64,281.6v-59.7
				C64,217.2,68.8,213.3,74.7,213.3z"/>
			<path id="Shape_13_" d="M74.7,145.1c5.9,0,10.7-3.8,10.7-8.5s-4.8-8.5-10.7-8.5S64,124.2,64,119.5V59.7c0-4.7,4.8-8.5,10.7-8.5
				s10.7-3.8,10.7-8.5s-4.8-8.5-10.7-8.5c-17.7,0-32,11.5-32,25.6v59.7C42.7,133.6,57,145.1,74.7,145.1z"/>
		</g>
	</g>
</g>
</svg>
