<?xml version="1.0" encoding="utf-8"?>
<!-- Generator: Adobe Illustrator 24.2.0, SVG Export Plug-In . SVG Version: 6.00 Build 0)  -->
<svg version="1.1" id="Capa_1" xmlns="http://www.w3.org/2000/svg" xmlns:xlink="http://www.w3.org/1999/xlink" x="0px" y="0px"
	 viewBox="0 0 512 512" style="enable-background:new 0 0 512 512;" xml:space="preserve">
<style type="text/css">
	.st0{fill:#E95353;}
	.st1{fill:#168DE2;}
	.st2{fill:#FFFFFF;}
	.st3{fill:#FFE21F;}
	.st4{fill:#454545;}
	.st5{fill:#ED6262;}
	.st6{fill:#FFBD49;}
	.st7{fill:#FFDB6F;}
	.st8{fill:#6F6F6F;}
	.st9{fill:#777777;}
	.st10{fill:#3AA2EB;}
</style>
<path class="st0" d="M504.9,284.6c-0.8-19.7-6.4-38.5-15.7-54.2c-20.9-35.3-25-63.3-25-63.3c-16.4-55.7-31-92.9-41.8-116.5
	c-11.3-24.8-30.8-41.4-52.9-45.1c-44.3-7.4-182.8-7.4-227.1,0c-22,3.7-41.6,20.4-52.8,45.1c-10.7,23.6-25.3,60.7-41.8,116.5
	c0,0-4.1,28-25,63.3C13.5,246,7.9,264.9,7.1,284.6c-1.6,42.7,8,52.1,16.5,148.7c0.7,7.6,5.6,13.3,11.6,13.3h441.6
	c5.9,0,10.9-5.7,11.6-13.3c2.4-27.1,9.5-82,9.5-82C504.1,323.9,505.5,301.6,504.9,284.6z"/>
<path class="st1" d="M454.9,164.9c-13-42-26.2-78.7-39.3-107.9c-10-22.1-27.6-37.5-47-40.9c-44.4-7.6-181-7.6-225,0
	c-19.5,3.4-37,18.8-47,40.9C83.1,86.6,69.8,123.8,57,164.9C189.4,178.4,322.4,178.4,454.9,164.9z"/>
<path class="st2" d="M436.1,213.4c-5.1,2.1-9.8,4.9-13.7,7.8c-7.2,5.2-14.5,10-22.2,13.8c-12.7,6.3-14.9,15.6-14.9,15.6
	c-0.4,0.6-0.8,1.3-1.1,1.9c-9.7,18.6,3,43.3,20.2,40.2c24.8-4.5,45.2-13.8,55.6-19.2c5.9-3.1,10.6-9.5,12.1-17.6
	c0.1-0.8,0.3-1.5,0.4-2.3C476.2,227,456,205.4,436.1,213.4z"/>
<path class="st3" d="M462.5,362.3H435c-4.1,0-6.2,6.5-3.3,10.3l27.6,35.7c2.9,3.8,8,1.1,8-4.3v-35.7
	C467.2,365,465.1,362.3,462.5,362.3z"/>
<path class="st4" d="M488.4,433.2c-0.7,7.6-5.6,13.4-11.6,13.4h-53v39.9c0,14.1,8.8,25.6,19.7,25.6h33.3c10.9,0,19.7-11.4,19.7-25.6
	V361.7C494.4,378.9,490.1,413.5,488.4,433.2z"/>
<path class="st5" d="M511.6,137c-1.6-9.3-8.3-15.6-15.7-15.6h-13.3c-8.5,0-15.4,8.9-15.4,20v12.3h-7.1l4,12.4h15.5
	c8,0,16-2.2,23.3-6.6C509.6,155.7,513.2,146.3,511.6,137z"/>
<ellipse class="st6" cx="444.8" cy="245.6" rx="19.4" ry="25.1"/>
<ellipse class="st7" cx="405.8" cy="265.4" rx="14.3" ry="18.5"/>
<polygon class="st8" points="368.8,265.5 346.5,315.7 165.5,315.7 143.2,265.5 "/>
<path class="st2" d="M127.8,252.5c-0.3-0.7-0.7-1.3-1.1-1.9c0,0-2.2-9.3-14.9-15.6c-7.7-3.8-15-8.6-22.2-13.8
	c-4-2.9-8.6-5.7-13.7-7.8C56,205.3,35.8,227,39.6,253.6c0.1,0.8,0.2,1.5,0.4,2.3c1.5,8.1,6.2,14.5,12.1,17.6
	c10.4,5.4,30.8,14.7,55.6,19.2C124.8,295.8,137.5,271.1,127.8,252.5z"/>
<path class="st3" d="M77,362.3H49.5c-2.6,0-4.7,2.7-4.7,6V404c0,5.4,5,8.1,8,4.3l27.6-35.7C83.2,368.8,81.2,362.3,77,362.3z"/>
<path class="st9" d="M439.6,424.6c-28.7-64.3-61.7-62.3-61.7-62.3H134.1c0,0-33-2-61.7,62.3H22.8l0.6,8.3
	c0.6,7.8,5.6,13.7,11.6,13.7h442c6,0,11-5.9,11.6-13.7l0.6-8.3L439.6,424.6L439.6,424.6z"/>
<path class="st4" d="M35.2,446.6c-5.9,0-10.9-5.8-11.6-13.4c-1.7-19.7-6-54.3-8.2-71.5v124.8c0,14.1,8.8,25.6,19.7,25.6h33.3
	c10.9,0,19.7-11.4,19.7-25.6v-39.9L35.2,446.6L35.2,446.6z"/>
<path class="st5" d="M44.8,153.7v-12.3c0-11-6.9-20-15.4-20H16.1c-7.3,0-14.1,6.3-15.7,15.6c-1.6,9.3,2.1,18.7,8.6,22.6
	c7.3,4.3,15.2,6.6,23.3,6.6h15.5l4-12.4L44.8,153.7C44.8,153.6,44.8,153.7,44.8,153.7z"/>
<ellipse class="st6" cx="67.2" cy="245.6" rx="19.4" ry="25.1"/>
<ellipse class="st7" cx="106.3" cy="265.4" rx="14.3" ry="18.5"/>
<g>
	<path class="st8" d="M359.2,379.9H152.8c-3.2,0-5.8,3.4-5.8,7.6c0,4.2,2.6,7.6,5.8,7.6h206.4c3.2,0,5.8-3.4,5.8-7.6
		C365,383.3,362.4,379.9,359.2,379.9z"/>
	<path class="st8" d="M359.2,410.1H152.8c-3.2,0-5.8,3.4-5.8,7.6c0,4.2,2.6,7.6,5.8,7.6h206.4c3.2,0,5.8-3.4,5.8-7.6
		C365,413.4,362.4,410.1,359.2,410.1z"/>
</g>
<path class="st10" d="M433.2,100.8v2.6c0,10.4-6.6,18.8-14.8,18.3c-7.6-0.6-13.4-9.4-13.4-19.4V65.2c0-8.8-5.6-15.4-12.4-15.2
	c-0.2,0-0.2,0-0.3,0c0,0,0,0-0.2,0c-6.8-0.2-12.4,6.5-12.4,15.2v33.6c0,10.4-6.9,18.8-15,18.1c-7.6-0.4-13.4-9.4-13.4-19.2V68.5
	c0-8.8-5.6-16.1-12.6-16.1h-1c-6.4,0-11.8,6.9-11.8,15.2v38c0,10.4-6.8,18.7-15,18.3c-7.6-0.6-13.2-9.4-13.2-19.4v-51
	c0-8.1-5.5-15-11.9-14.4h-1c-6.6,0-11.9,6.9-11.9,15.2v52.1c0,10-6.3,18.3-14.2,18.3c-7.6,0-13.8-7.9-14-17.7V63.5
	c0-10-5.8-18.7-13.4-19.4c-8.2-0.4-14.8,7.9-14.8,18.3l-0.2,40.4c0,10.4-6.6,18.7-14.8,18.3c-7.4-0.6-13.1-9.1-13.3-18.6V55.2
	c0-9.8-5.7-18.6-13.3-19.2c-8.1-0.5-14.9,7.9-14.9,18.3v49.7c-0.2,10.2-6.8,18.3-14.9,17.9c-7.6-0.6-13.2-9.4-13.2-19.4V65.2
	c0-8.8-5.8-15.4-12.6-15.2c-0.2,0-0.2,0-0.2,0c-0.2,0-0.2,0-0.2,0c-6.9-0.2-12.6,6.5-12.6,15.2v33.6c0,10.4-6.8,18.8-14.8,18.1
	c-7-0.4-12.2-7.9-13.1-16.7c-7.4,19.9-14.8,41.6-22,64.6c132.4,13.5,265.5,13.5,397.9,0C447.7,141.7,440.5,120.4,433.2,100.8z"/>
</svg>
